<svg width="14" height="25" viewBox="0 0 14 25" fill="none" xmlns="http://www.w3.org/2000/svg">
<path d="M2.23346 24.203C2.33616 24.1824 2.52101 24.1106 2.64425 24.0489C2.78802 23.977 4.53385 22.262 8.24117 18.5547C14.0127 12.7729 13.8176 12.9886 13.8894 12.4032C13.9305 12.0438 13.8689 11.6022 13.7149 11.2941C13.6122 11.0784 12.5647 10.0104 8.32333 5.7588C5.42731 2.86277 2.94207 0.40834 2.80856 0.315914C2.47993 0.0899827 1.98699 -0.0332511 1.61729 0.0078273C1.01138 0.0797144 0.426015 0.490497 0.159006 1.05532C0.0460406 1.29152 0.0254998 1.40449 0.0152302 1.79473C0.0152302 2.62657 -0.354473 2.20552 4.91383 7.46355L9.55568 12.1157L4.90356 16.7781C-0.354474 22.0464 0.00496197 21.6253 0.00496197 22.4572C0.00496197 22.8577 0.0152304 22.9501 0.148735 23.2171C0.456823 23.8333 1.00111 24.203 1.65837 24.2338C1.87403 24.2441 2.13077 24.2338 2.23346 24.203Z" fill="white"/>
</svg>
