<svg width="50" height="40" viewBox="0 0 50 40" fill="none" xmlns="http://www.w3.org/2000/svg">
<path d="M42.3282 4.0844C39.0861 2.59645 35.6649 1.53449 32.15 0.925023C32.1182 0.919658 32.0855 0.924293 32.0563 0.938283C32.0273 0.952273 32.0033 0.974927 31.9875 1.00315C31.5469 1.7844 31.0594 2.80627 30.7188 3.60627C26.9301 3.0313 23.0763 3.0313 19.2875 3.60627C18.9076 2.71507 18.4778 1.84599 18 1.00315C17.984 0.975235 17.9599 0.952841 17.9309 0.938898C17.9019 0.924946 17.8693 0.92011 17.8375 0.925023C14.3221 1.53202 10.9007 2.59407 7.65942 4.0844C7.63168 4.09497 7.60849 4.11486 7.59379 4.14065C1.11254 13.825 -0.665586 23.2719 0.206289 32.6C0.209414 32.6437 0.237539 32.6875 0.271914 32.7156C4.04609 35.5112 8.26753 37.6457 12.7563 39.0281C12.788 39.0381 12.822 39.0378 12.8535 39.0271C12.885 39.0164 12.9122 38.996 12.9313 38.9687C13.8938 37.6562 14.75 36.2719 15.4875 34.8156C15.4977 34.7957 15.5036 34.7739 15.5045 34.7517C15.5056 34.7294 15.5018 34.7071 15.4936 34.6863C15.4853 34.6656 15.4726 34.6469 15.4565 34.6315C15.4404 34.616 15.4212 34.6043 15.4 34.5969C14.0537 34.0794 12.7497 33.4578 11.5 32.7375C11.4772 32.7243 11.458 32.7057 11.4441 32.6832C11.4303 32.6607 11.4223 32.6353 11.4208 32.6089C11.4191 32.5826 11.4242 32.5563 11.4353 32.5324C11.4464 32.5084 11.4633 32.4877 11.4844 32.4719C11.7469 32.275 12.0094 32.0687 12.2594 31.8625C12.2815 31.8448 12.308 31.8333 12.3361 31.8295C12.3641 31.8256 12.3927 31.8295 12.4188 31.8406C20.6032 35.5781 29.4625 35.5781 37.5469 31.8406C37.5738 31.8286 37.6036 31.8243 37.6328 31.8281C37.662 31.832 37.6896 31.8439 37.7125 31.8625C37.9625 32.0687 38.225 32.275 38.4875 32.4719C38.5088 32.4875 38.5259 32.5081 38.5373 32.5318C38.5487 32.5556 38.5539 32.5818 38.5527 32.6081C38.5514 32.6344 38.5438 32.66 38.5302 32.6826C38.5166 32.7052 38.4977 32.724 38.475 32.7375C37.2282 33.4643 35.9225 34.0852 34.5719 34.5937C34.551 34.6018 34.532 34.6142 34.5163 34.6301C34.5004 34.6459 34.4882 34.665 34.4802 34.6858C34.4722 34.7068 34.4688 34.7292 34.47 34.7515C34.4713 34.7739 34.4773 34.7957 34.4875 34.8156C35.2375 36.2688 36.0969 37.6562 37.0407 38.9687C37.0597 38.996 37.087 39.0164 37.1185 39.0271C37.1499 39.0378 37.1839 39.0381 37.2157 39.0281C41.7119 37.6501 45.9403 35.5154 49.7188 32.7156C49.7376 32.7024 49.7532 32.6852 49.7645 32.6652C49.7759 32.6452 49.7827 32.623 49.7844 32.6C50.8282 21.8156 48.0375 12.4469 42.3907 4.14377C42.385 4.13005 42.3764 4.11769 42.3657 4.10746C42.3549 4.09723 42.3421 4.08938 42.3282 4.0844ZM16.7094 26.9187C14.2438 26.9187 12.2157 24.6562 12.2157 21.8812C12.2157 19.1031 14.2063 16.8406 16.7094 16.8406C19.2313 16.8406 21.2407 19.1219 21.2032 21.8812C21.2032 24.6562 19.2125 26.9187 16.7094 26.9187ZM33.3219 26.9187C30.8594 26.9187 28.8282 24.6562 28.8282 21.8812C28.8282 19.1031 30.8188 16.8406 33.3219 16.8406C35.8438 16.8406 37.8563 19.1219 37.8157 21.8812C37.8157 24.6562 35.8438 26.9187 33.3219 26.9187Z" fill="white"/>
</svg>
