<svg width="40" height="31" viewBox="0 0 40 31" fill="none" xmlns="http://www.w3.org/2000/svg">
<path d="M3.67674 30.3654H36.3233C38.3506 30.3654 40 28.7159 40 26.6884V3.71147C40 1.68394 38.3506 0.0345764 36.3233 0.0345764H3.67674C1.64936 0.0345764 0 1.6841 0 3.71147V26.6884C0 28.7159 1.64936 30.3654 3.67674 30.3654ZM2.39454 3.71147C2.39454 3.00333 2.96939 2.42912 3.67674 2.42912H36.3233C37.0309 2.42912 37.6055 3.00333 37.6055 3.71147V26.6884C37.6055 27.3967 37.0308 27.9709 36.3233 27.9709H3.67674C2.96923 27.9709 2.39454 27.3967 2.39454 26.6884V3.71147ZM7.1418 26.2775H4.74726V4.22406L19.701 13.9323C19.8769 14.0465 20.1229 14.0466 20.2993 13.932L35.2529 4.22406V26.2775H32.8584V8.63353L21.6029 15.9407C21.1253 16.2506 20.571 16.4142 20 16.4142C19.429 16.4142 18.8747 16.2506 18.3974 15.9409L7.1418 8.63353V26.2775Z" fill="white"/>
</svg>
