<svg width="50" height="50" viewBox="0 0 50 50" fill="none" xmlns="http://www.w3.org/2000/svg">
<path d="M25 4.83398C31.5723 4.83398 32.3438 4.86328 34.9414 4.98047C37.3438 5.08789 38.6426 5.48828 39.5117 5.83008C40.6641 6.2793 41.4844 6.80664 42.3438 7.66602C43.2031 8.52539 43.7402 9.3457 44.1797 10.498C44.5117 11.3672 44.9219 12.666 45.0293 15.0684C45.1465 17.666 45.1758 18.4375 45.1758 25.0098C45.1758 31.582 45.1465 32.3535 45.0293 34.9512C44.9219 37.3535 44.5215 38.6523 44.1797 39.5215C43.7305 40.6738 43.2031 41.4941 42.3438 42.3535C41.4844 43.2129 40.6641 43.75 39.5117 44.1895C38.6426 44.5215 37.3438 44.9316 34.9414 45.0391C32.3438 45.1562 31.5723 45.1855 25 45.1855C18.4277 45.1855 17.6562 45.1562 15.0586 45.0391C12.6562 44.9316 11.3574 44.5312 10.4883 44.1895C9.33594 43.7402 8.51562 43.2129 7.65625 42.3535C6.79688 41.4941 6.25977 40.6738 5.82031 39.5215C5.48828 38.6523 5.07813 37.3535 4.9707 34.9512C4.85352 32.3535 4.82422 31.582 4.82422 25.0098C4.82422 18.4375 4.85352 17.666 4.9707 15.0684C5.07813 12.666 5.47852 11.3672 5.82031 10.498C6.26953 9.3457 6.79688 8.52539 7.65625 7.66602C8.51562 6.80664 9.33594 6.26953 10.4883 5.83008C11.3574 5.49805 12.6562 5.08789 15.0586 4.98047C17.6562 4.85352 18.4277 4.83398 25 4.83398ZM25 0.400391C18.3203 0.400391 17.4805 0.429687 14.8535 0.546875C12.2363 0.664062 10.4492 1.08398 8.88672 1.68945C7.26562 2.31445 5.89844 3.16406 4.53125 4.53125C3.16406 5.89844 2.32422 7.27539 1.68945 8.88672C1.08398 10.4492 0.664062 12.2363 0.546875 14.8633C0.429687 17.4805 0.400391 18.3203 0.400391 25C0.400391 31.6797 0.429687 32.5195 0.546875 35.1465C0.664062 37.7637 1.08398 39.5508 1.68945 41.123C2.31445 42.7441 3.16406 44.1113 4.53125 45.4785C5.89844 46.8457 7.27539 47.6855 8.88672 48.3203C10.4492 48.9258 12.2363 49.3457 14.8633 49.4629C17.4902 49.5801 18.3203 49.6094 25.0098 49.6094C31.6992 49.6094 32.5293 49.5801 35.1562 49.4629C37.7734 49.3457 39.5605 48.9258 41.1328 48.3203C42.7539 47.6953 44.1211 46.8457 45.4883 45.4785C46.8555 44.1113 47.6953 42.7344 48.3301 41.123C48.9355 39.5605 49.3555 37.7734 49.4727 35.1465C49.5898 32.5195 49.6191 31.6895 49.6191 25C49.6191 18.3105 49.5898 17.4805 49.4727 14.8535C49.3555 12.2363 48.9355 10.4492 48.3301 8.87695C47.7051 7.25586 46.8555 5.88867 45.4883 4.52148C44.1211 3.1543 42.7441 2.31445 41.1328 1.67969C39.5703 1.07422 37.7832 0.654297 35.1562 0.537109C32.5195 0.429688 31.6797 0.400391 25 0.400391Z" fill="white"/>
<path d="M25 12.3633C18.0273 12.3633 12.3633 18.0176 12.3633 25C12.3633 31.9824 18.0273 37.6367 25 37.6367C31.9727 37.6367 37.6367 31.9727 37.6367 25C37.6367 18.0273 31.9727 12.3633 25 12.3633ZM25 33.2031C20.4687 33.2031 16.7969 29.5312 16.7969 25C16.7969 20.4687 20.4687 16.7969 25 16.7969C29.5312 16.7969 33.2031 20.4687 33.2031 25C33.2031 29.5312 29.5312 33.2031 25 33.2031Z" fill="white"/>
<path d="M38.1348 14.8145C39.7636 14.8145 41.084 13.494 41.084 11.8652C41.084 10.2364 39.7636 8.91602 38.1348 8.91602C36.506 8.91602 35.1855 10.2364 35.1855 11.8652C35.1855 13.494 36.506 14.8145 38.1348 14.8145Z" fill="white"/>
</svg>
