<svg width="40" height="40" viewBox="0 0 40 40" fill="none" xmlns="http://www.w3.org/2000/svg">
<g clip-path="url(#clip0_336_574)">
<path d="M12.0885 30.8233L13.2952 31.5283C15.3301 32.7151 17.6445 33.3382 20.0002 33.3333C22.6373 33.3333 25.2151 32.5514 27.4078 31.0863C29.6004 29.6212 31.3094 27.5388 32.3186 25.1025C33.3277 22.6661 33.5918 19.9852 33.0773 17.3988C32.5629 14.8124 31.293 12.4366 29.4283 10.5719C27.5636 8.70722 25.1878 7.43734 22.6014 6.92287C20.015 6.4084 17.3341 6.67245 14.8977 7.68162C12.4614 8.69078 10.379 10.3998 8.91392 12.5924C7.44884 14.7851 6.66685 17.3629 6.66685 20C6.66685 22.3933 7.29519 24.6883 8.47352 26.7067L9.17685 27.9133L8.08852 31.915L12.0885 30.8233ZM3.34019 36.6667L5.59352 28.3867C4.10875 25.8414 3.32868 22.9467 3.33352 20C3.33352 10.795 10.7952 3.33334 20.0002 3.33334C29.2052 3.33334 36.6669 10.795 36.6669 20C36.6669 29.205 29.2052 36.6667 20.0002 36.6667C17.0548 36.6714 14.1613 35.892 11.6169 34.4083L3.34019 36.6667ZM13.9852 12.18C14.2085 12.1633 14.4335 12.1633 14.6569 12.1733C14.7469 12.18 14.8369 12.19 14.9269 12.2C15.1919 12.23 15.4835 12.3917 15.5819 12.615C16.0785 13.7417 16.5619 14.8767 17.0285 16.015C17.1319 16.2683 17.0702 16.5933 16.8735 16.91C16.7383 17.1241 16.592 17.3311 16.4352 17.53C16.2469 17.7717 15.8419 18.215 15.8419 18.215C15.8419 18.215 15.6769 18.4117 15.7402 18.6567C15.7635 18.75 15.8402 18.885 15.9102 18.9983L16.0085 19.1567C16.4352 19.8683 17.0085 20.59 17.7085 21.27C17.9085 21.4633 18.1035 21.6617 18.3135 21.8467C19.0935 22.535 19.9769 23.0967 20.9302 23.5133L20.9385 23.5167C21.0802 23.5783 21.1518 23.6117 21.3585 23.7C21.4619 23.7433 21.5685 23.7817 21.6769 23.81C21.7888 23.8385 21.9067 23.8332 22.0156 23.7946C22.1245 23.756 22.2195 23.686 22.2885 23.5933C23.4952 22.1317 23.6052 22.0367 23.6152 22.0367V22.04C23.699 21.9618 23.7986 21.9025 23.9073 21.866C24.0159 21.8295 24.1312 21.8166 24.2452 21.8283C24.3452 21.835 24.4469 21.8533 24.5402 21.895C25.4252 22.3 26.8735 22.9317 26.8735 22.9317L27.8435 23.3667C28.0068 23.445 28.1552 23.63 28.1602 23.8083C28.1669 23.92 28.1768 24.1 28.1385 24.43C28.0852 24.8617 27.9552 25.38 27.8252 25.6517C27.7362 25.8371 27.618 26.007 27.4752 26.155C27.307 26.3316 27.1229 26.4923 26.9252 26.635C26.8568 26.6864 26.7873 26.7365 26.7169 26.785C26.5096 26.9165 26.2966 27.0389 26.0785 27.1517C25.6494 27.3796 25.1755 27.5105 24.6902 27.535C24.3819 27.5517 24.0735 27.575 23.7635 27.5583C23.7502 27.5583 22.8169 27.4133 22.8169 27.4133C20.4473 26.7901 18.2558 25.6224 16.4169 24.0033C16.0402 23.6717 15.6919 23.315 15.3352 22.96C13.8519 21.485 12.7319 19.8933 12.0519 18.39C11.7038 17.6522 11.5158 16.849 11.5002 16.0333C11.4933 15.0214 11.8241 14.0361 12.4402 13.2333C12.5619 13.0767 12.6769 12.9133 12.8752 12.725C13.0869 12.525 13.2202 12.4183 13.3652 12.345C13.558 12.2484 13.7683 12.1917 13.9835 12.1783L13.9852 12.18Z" fill="white"/>
</g>
<defs>
<clipPath id="clip0_336_574">
<rect width="40" height="40" rx="4" fill="white"/>
</clipPath>
</defs>
</svg>
